<svg xmlns="http://www.w3.org/2000/svg" xmlns:xlink="http://www.w3.org/1999/xlink" width="500" zoomAndPan="magnify" viewBox="0 0 375 374.999991" height="500" preserveAspectRatio="xMidYMid meet" version="1.0"><defs><g/><clipPath id="30640f3abc"><path d="M 132.574219 82.675781 L 236.824219 82.675781 L 236.824219 228 L 132.574219 228 Z M 132.574219 82.675781 " clip-rule="nonzero"/></clipPath></defs><rect x="-37.5" width="450" fill="#ffffff" y="-37.499999" height="449.999989" fill-opacity="1"/><rect x="-37.5" width="450" fill="#ffffff" y="-37.499999" height="449.999989" fill-opacity="1"/><g clip-path="url(#30640f3abc)"><path fill="#000000" d="M 234.058594 118.28125 C 234.613281 116.660156 235.195312 115.050781 235.621094 113.386719 C 236.445312 110.144531 236.828125 106.792969 236.785156 103.449219 C 236.75 100.097656 236.289062 96.75 235.445312 93.503906 C 234.726562 90.742188 233.828125 87.804688 232.03125 85.527344 C 231.246094 84.53125 230.257812 83.699219 229.070312 83.226562 C 227.738281 82.695312 226.257812 82.710938 224.894531 83.117188 C 221.835938 84.019531 219.78125 86.546875 218.085938 89.101562 C 216.246094 91.878906 214.441406 94.660156 212.445312 97.332031 C 210.40625 100.066406 208.246094 102.703125 205.980469 105.246094 C 204.84375 106.519531 203.679688 107.769531 202.492188 108.988281 C 201.492188 110.015625 200.253906 111.144531 199.976562 112.621094 C 199.945312 112.789062 199.929688 112.957031 199.929688 113.121094 C 199.054688 112.71875 197.980469 112.597656 197.09375 112.609375 C 195.675781 112.621094 194.273438 112.984375 192.945312 113.460938 C 190.074219 114.488281 187.257812 116.265625 184.09375 116.039062 C 181.179688 115.828125 178.695312 113.945312 175.777344 113.648438 C 173.507812 113.421875 171.160156 113.914062 169.152344 115 C 169.144531 114.988281 169.140625 114.972656 169.132812 114.960938 C 166.824219 111.164062 164.316406 107.484375 161.617188 103.945312 C 159.101562 100.648438 156.46875 97.375 153.464844 94.503906 C 150.722656 91.886719 147.503906 89.503906 143.835938 88.378906 C 140.808594 87.453125 136.835938 87.515625 134.957031 90.492188 C 134.003906 92.007812 133.917969 93.863281 134.0625 95.597656 C 134.230469 97.570312 134.675781 99.507812 134.792969 101.484375 C 135.0625 106.023438 134.117188 110.507812 133.5 114.980469 C 132.914062 119.246094 132.570312 123.71875 133.917969 127.882812 C 134.582031 129.9375 135.757812 131.707031 136.804688 133.574219 C 137.859375 135.457031 138.441406 137.433594 138.8125 139.550781 C 139.175781 141.617188 139.417969 143.722656 140.09375 145.714844 C 140.726562 147.574219 141.75 149.253906 142.761719 150.921875 C 143.753906 152.554688 144.761719 154.21875 145.304688 156.066406 C 145.953125 158.25 145.792969 160.542969 145.355469 162.75 C 145.132812 163.871094 144.84375 164.980469 144.554688 166.082031 C 144.460938 166.4375 145.007812 166.589844 145.105469 166.234375 C 145.675781 164.0625 146.246094 161.855469 146.308594 159.597656 C 146.363281 157.597656 145.917969 155.703125 145.070312 153.890625 C 144.257812 152.15625 143.175781 150.566406 142.222656 148.90625 C 141.226562 147.179688 140.492188 145.40625 140.070312 143.457031 C 139.628906 141.398438 139.433594 139.296875 138.90625 137.257812 C 138.390625 135.253906 137.4375 133.515625 136.386719 131.746094 C 135.84375 130.824219 135.300781 129.890625 134.890625 128.898438 C 134.480469 127.917969 134.183594 126.890625 133.96875 125.847656 C 133.546875 123.765625 133.484375 121.621094 133.601562 119.5 C 133.84375 115.054688 134.863281 110.699219 135.25 106.265625 C 135.441406 104.085938 135.472656 101.886719 135.183594 99.710938 C 134.941406 97.886719 134.550781 96.066406 134.566406 94.21875 C 134.585938 92.484375 135.078125 90.734375 136.484375 89.609375 C 137.792969 88.558594 139.5625 88.316406 141.191406 88.445312 C 142.96875 88.585938 144.664062 89.195312 146.253906 89.980469 C 148.011719 90.847656 149.640625 91.960938 151.148438 93.207031 C 154.214844 95.75 156.820312 98.820312 159.304688 101.917969 C 162.042969 105.332031 164.597656 108.890625 166.960938 112.570312 C 167.46875 113.363281 167.96875 114.164062 168.460938 114.96875 C 166.117188 115.902344 163.761719 116.875 161.667969 118.296875 C 160.589844 119.03125 159.582031 119.882812 158.734375 120.875 C 157.835938 121.925781 157.101562 123.101562 156.414062 124.304688 C 155.710938 125.539062 155.042969 126.796875 154.28125 127.992188 C 153.492188 129.230469 152.632812 130.417969 151.753906 131.597656 C 150.007812 133.9375 148.179688 136.234375 146.726562 138.773438 C 145.351562 141.183594 144.296875 143.835938 144.023438 146.613281 C 143.800781 148.851562 143.976562 151.90625 145.839844 153.484375 C 146.726562 154.234375 147.890625 154.394531 148.957031 153.9375 C 150.164062 153.421875 150.9375 152.332031 151.425781 151.15625 C 151.984375 149.816406 152.3125 148.375 152.644531 146.964844 C 152.984375 145.515625 153.285156 144.050781 153.652344 142.605469 C 154.207031 140.445312 154.921875 138.3125 156.09375 136.417969 C 156.207031 136.679688 156.355469 136.933594 156.546875 137.175781 C 157.992188 139.042969 160.707031 138.984375 162.8125 138.628906 C 164.75 138.296875 167.292969 137.421875 167.925781 135.328125 C 168.257812 134.230469 167.898438 133.074219 167.148438 132.234375 C 166.273438 131.253906 164.957031 130.835938 163.671875 130.839844 C 161.210938 130.84375 158.941406 132.167969 157.292969 133.914062 C 156.949219 134.273438 156.640625 134.648438 156.351562 135.03125 C 156.347656 134.972656 156.339844 134.917969 156.339844 134.859375 C 156.332031 132.378906 158.289062 130.253906 160.378906 129.183594 C 162.496094 128.097656 165.21875 127.90625 167.160156 129.46875 C 168.835938 130.820312 169.507812 133.074219 169.414062 135.160156 C 169.175781 140.515625 164.039062 143.796875 159.90625 146.238281 C 155.472656 148.859375 150.332031 151.9375 149.425781 157.488281 C 149.230469 158.6875 149.28125 159.902344 149.628906 161.070312 C 149.675781 161.226562 149.808594 161.277344 149.929688 161.265625 C 148.164062 162.636719 146.554688 164.261719 145.527344 166.269531 C 144.398438 168.472656 144.09375 170.953125 144.449219 173.390625 C 145.230469 178.730469 148.6875 183.039062 152.257812 186.859375 C 154.132812 188.859375 156.070312 190.808594 157.777344 192.960938 C 159.5 195.128906 160.855469 197.511719 161.957031 200.046875 C 164.121094 205.007812 165.449219 210.347656 168.246094 215.019531 C 173.40625 223.644531 183.621094 228.875 193.640625 227.027344 C 198.472656 226.132812 202.683594 223.535156 205.644531 219.617188 C 208.734375 215.523438 210.359375 210.523438 211.648438 205.617188 C 213.09375 200.101562 214.226562 194.390625 216.992188 189.339844 C 219.757812 184.285156 224.074219 180.355469 227.476562 175.757812 C 230.476562 171.703125 232.925781 166.824219 232.269531 161.640625 C 232 159.492188 231.238281 157.386719 229.898438 155.667969 C 229.550781 155.21875 229.160156 154.808594 228.742188 154.4375 C 229.265625 154.367188 229.585938 153.902344 229.757812 153.433594 C 229.992188 152.78125 229.992188 152.027344 230.019531 151.34375 C 230.050781 150.601562 230.039062 149.863281 229.996094 149.125 C 229.964844 148.597656 229.90625 148.074219 229.835938 147.550781 C 230.394531 146.636719 230.882812 145.699219 231.117188 144.640625 C 231.675781 142.097656 231.007812 139.324219 229.324219 137.335938 C 228.136719 135.929688 226.445312 135.039062 224.652344 134.710938 C 221.476562 130.101562 217.28125 126.300781 212.835938 122.917969 C 210.253906 120.949219 207.582031 119.113281 204.910156 117.269531 C 204.238281 116.808594 203.566406 116.34375 202.894531 115.878906 C 202.332031 115.492188 201.722656 115.117188 201.21875 114.648438 C 201.199219 114.292969 201.058594 113.945312 200.742188 113.660156 C 200.675781 113.601562 200.597656 113.550781 200.523438 113.496094 C 200.328125 112.421875 201.121094 111.273438 201.851562 110.460938 C 202.945312 109.246094 204.128906 108.109375 205.230469 106.90625 C 206.359375 105.683594 207.457031 104.433594 208.527344 103.164062 C 210.65625 100.636719 212.683594 98.019531 214.597656 95.324219 C 215.570312 93.949219 216.515625 92.558594 217.429688 91.144531 C 218.300781 89.796875 219.144531 88.421875 220.164062 87.183594 C 222.023438 84.921875 224.902344 82.839844 228 83.511719 C 230.675781 84.089844 232.292969 86.5625 233.3125 88.914062 C 234.578125 91.84375 235.339844 95.058594 235.792969 98.210938 C 236.269531 101.515625 236.332031 104.886719 235.964844 108.207031 C 235.785156 109.839844 235.492188 111.460938 235.09375 113.058594 C 234.6875 114.699219 234.125 116.289062 233.570312 117.890625 C 233.035156 119.453125 232.53125 121.039062 232.328125 122.683594 C 232.117188 124.359375 232.328125 126.003906 232.675781 127.644531 C 233.273438 130.480469 234.1875 133.484375 232.929688 136.285156 C 232.445312 137.367188 231.660156 138.257812 230.554688 138.722656 C 230.21875 138.863281 230.507812 139.355469 230.84375 139.214844 C 233.210938 138.214844 234.125 135.46875 234.144531 133.082031 C 234.171875 129.75 232.574219 126.621094 232.835938 123.261719 C 232.992188 121.546875 233.507812 119.894531 234.058594 118.28125 Z M 156.863281 135.300781 C 158.316406 133.394531 160.363281 131.824219 162.78125 131.46875 C 164.15625 131.261719 165.6875 131.5 166.679688 132.546875 C 167.488281 133.398438 167.757812 134.652344 167.15625 135.695312 C 166.613281 136.636719 165.570312 137.207031 164.578125 137.574219 C 163.542969 137.953125 162.429688 138.160156 161.328125 138.226562 C 160.1875 138.296875 158.960938 138.21875 157.949219 137.636719 C 157.226562 137.222656 156.726562 136.570312 156.496094 135.804688 C 156.617188 135.632812 156.734375 135.46875 156.863281 135.300781 Z M 151.792969 153.347656 C 153.40625 151.015625 155.8125 149.371094 158.203125 147.917969 C 160.566406 146.476562 163.015625 145.167969 165.167969 143.410156 C 167.109375 141.816406 168.878906 139.789062 169.625 137.347656 C 170.25 135.289062 170.121094 132.9375 169.128906 131.011719 C 168.082031 128.984375 166.039062 127.742188 163.753906 127.753906 C 161.359375 127.761719 158.921875 128.984375 157.398438 130.816406 C 156.3125 132.125 155.511719 134.023438 155.878906 135.714844 C 153.171875 139.800781 152.761719 144.980469 151.367188 149.625 C 150.960938 150.96875 150.414062 152.4375 149.152344 153.207031 C 147.964844 153.925781 146.632812 153.667969 145.78125 152.585938 C 144.984375 151.574219 144.691406 150.242188 144.582031 148.988281 C 144.457031 147.539062 144.601562 146.074219 144.9375 144.660156 C 146.347656 138.734375 150.710938 134.273438 154.050781 129.386719 C 154.875 128.175781 155.613281 126.921875 156.324219 125.644531 C 157.03125 124.378906 157.734375 123.105469 158.609375 121.945312 C 160.304688 119.683594 162.691406 118.15625 165.222656 116.964844 C 166.054688 116.570312 166.902344 116.214844 167.753906 115.867188 C 167 116.394531 166.234375 117.046875 165.890625 117.8125 C 165.34375 119.035156 166.585938 119.605469 167.578125 119.777344 C 170.496094 120.273438 173.738281 119.175781 176.488281 120.550781 C 178.898438 121.753906 180.390625 124.628906 179.582031 127.265625 C 179.183594 128.570312 178.328125 129.695312 177.570312 130.808594 C 176.65625 132.15625 175.75 133.507812 174.804688 134.835938 C 172.992188 137.375 171.046875 139.835938 168.917969 142.117188 C 167.882812 143.226562 166.792969 144.292969 165.648438 145.292969 C 164.5625 146.246094 163.269531 147.046875 162.292969 148.117188 C 161.480469 149.007812 160.96875 150.21875 161.375 151.410156 C 161.417969 151.539062 161.519531 151.609375 161.648438 151.621094 C 164.65625 151.84375 167.414062 152.683594 170.171875 153.832031 C 170.175781 153.863281 170.183594 153.890625 170.191406 153.917969 C 169.695312 153.773438 169.1875 153.65625 168.652344 153.585938 C 167.277344 153.417969 165.886719 153.5 164.53125 153.761719 C 161.707031 154.3125 159.105469 155.65625 156.625 157.050781 C 154.425781 158.292969 152.207031 159.539062 150.191406 161.066406 C 150.203125 161.023438 150.210938 160.972656 150.191406 160.914062 C 149.40625 158.285156 150.277344 155.535156 151.792969 153.347656 Z M 171.78125 147.503906 C 172.691406 145.941406 174.046875 144.734375 175.671875 144.050781 C 175.84375 144.445312 176.109375 144.816406 176.46875 145.136719 C 178.035156 146.527344 180.203125 146.691406 182.179688 146.390625 C 183.046875 146.257812 183.890625 146.046875 184.726562 145.796875 C 188.105469 149.242188 187.816406 154.867188 187.765625 159.347656 C 187.746094 160.882812 187.730469 162.417969 187.707031 163.949219 C 183.09375 163.773438 178.164062 162.589844 174.519531 159.667969 C 172.902344 158.375 171.59375 156.703125 170.949219 154.726562 C 172.136719 155.152344 173.277344 155.660156 174.527344 155.914062 C 175.800781 156.175781 177.105469 156.199219 178.382812 155.949219 C 180.605469 155.511719 182.972656 154.1875 183.414062 151.777344 C 183.78125 149.761719 182.433594 147.691406 180.234375 147.882812 C 177.613281 148.113281 178.148438 151.203125 176.847656 152.757812 C 176.074219 153.679688 174.933594 154.234375 173.730469 154.234375 C 172.648438 154.230469 171.628906 153.84375 170.636719 153.417969 C 170.324219 151.394531 170.742188 149.277344 171.78125 147.503906 Z M 176.953125 141.042969 C 177.796875 140.347656 178.898438 140 179.941406 139.738281 C 181.117188 139.441406 182.3125 139.1875 183.507812 138.964844 C 186.007812 138.5 188.597656 138.203125 191.132812 138.527344 C 193.601562 138.839844 195.925781 139.839844 197.667969 141.644531 C 197.753906 141.734375 197.839844 141.824219 197.921875 141.917969 C 193.609375 141.214844 189.355469 143.667969 185.371094 144.992188 C 185.210938 145.042969 185.050781 145.097656 184.886719 145.148438 C 184.71875 144.992188 184.546875 144.839844 184.363281 144.695312 C 182.007812 142.824219 178.785156 142.398438 176.011719 143.328125 C 175.855469 142.472656 176.269531 141.609375 176.953125 141.042969 Z M 204.46875 154.359375 C 204.0625 154.335938 203.660156 154.296875 203.261719 154.238281 C 203.308594 153.90625 203.324219 153.566406 203.300781 153.226562 C 203.230469 152.027344 202.890625 150.863281 202.5 149.734375 C 202.101562 148.589844 201.691406 147.453125 201.21875 146.34375 C 200.714844 145.15625 200.128906 143.988281 199.402344 142.921875 C 200.570312 143.367188 201.625 144.082031 202.492188 145.058594 C 203.988281 146.738281 204.832031 148.996094 204.898438 151.234375 C 204.9375 152.292969 204.777344 153.347656 204.46875 154.359375 Z M 201.386719 148.296875 C 202.015625 150 202.996094 152.210938 202.742188 154.152344 C 201.816406 153.980469 200.90625 153.703125 200.039062 153.292969 C 199.003906 152.804688 198.046875 152.144531 197.285156 151.289062 C 196.492188 150.402344 196.15625 149.238281 195.394531 148.347656 C 193.96875 146.679688 191.738281 147.921875 191.132812 149.6875 C 190.363281 151.949219 192.425781 153.980469 194.027344 155.242188 C 195.675781 156.542969 197.878906 157.851562 200.070312 157.601562 C 201.746094 157.410156 202.789062 156.230469 203.160156 154.769531 C 203.535156 154.824219 203.910156 154.863281 204.285156 154.890625 C 203.894531 155.957031 203.339844 156.964844 202.664062 157.878906 C 199.34375 162.355469 193.734375 164.070312 188.351562 163.972656 C 188.328125 163.972656 188.304688 163.96875 188.28125 163.96875 C 188.3125 161.765625 188.34375 159.558594 188.355469 157.359375 C 188.375 153.386719 188.148438 148.664062 185.335938 145.601562 C 186.675781 145.164062 187.992188 144.632812 189.308594 144.128906 C 191.5625 143.261719 193.917969 142.375 196.363281 142.367188 C 197.097656 142.363281 197.820312 142.449219 198.507812 142.628906 C 199.800781 144.3125 200.65625 146.320312 201.386719 148.296875 Z M 202.636719 154.683594 C 202.578125 154.914062 202.5 155.144531 202.394531 155.363281 C 201.207031 157.828125 198.203125 157.109375 196.285156 156.070312 C 195.179688 155.472656 194.152344 154.699219 193.253906 153.828125 C 192.394531 152.996094 191.515625 151.867188 191.539062 150.605469 C 191.5625 149.558594 192.34375 148.394531 193.398438 148.148438 C 194.742188 147.832031 195.335938 149.277344 195.851562 150.222656 C 197.269531 152.828125 199.847656 154.171875 202.636719 154.683594 Z M 177.433594 143.535156 C 179.789062 143.125 182.382812 143.730469 184.207031 145.300781 C 184.222656 145.316406 184.234375 145.332031 184.253906 145.347656 C 182.40625 145.894531 180.40625 146.261719 178.566406 145.660156 C 177.632812 145.355469 176.625 144.78125 176.183594 143.855469 C 176.589844 143.714844 177.007812 143.609375 177.433594 143.535156 Z M 170.773438 154.105469 C 170.773438 154.09375 170.773438 154.089844 170.769531 154.082031 C 171.890625 154.539062 173.070312 154.914062 174.289062 154.769531 C 175.375 154.640625 176.40625 154.09375 177.140625 153.285156 C 177.9375 152.414062 178.152344 151.394531 178.457031 150.292969 C 178.625 149.6875 178.867188 149.0625 179.429688 148.722656 C 179.929688 148.417969 180.554688 148.382812 181.109375 148.53125 C 182.335938 148.851562 182.972656 149.996094 182.910156 151.21875 C 182.839844 152.640625 181.90625 153.800781 180.714844 154.503906 C 178.207031 155.976562 175.226562 155.71875 172.589844 154.769531 C 171.976562 154.542969 171.378906 154.308594 170.773438 154.105469 Z M 230.125 156.964844 C 231.320312 158.929688 231.851562 161.257812 231.828125 163.546875 C 231.773438 168.984375 228.484375 173.789062 225.144531 177.820312 C 221.570312 182.132812 217.683594 186.164062 215.382812 191.347656 C 211.140625 200.894531 211.316406 212.691406 203.984375 220.75 C 200.601562 224.464844 195.855469 226.496094 190.875 226.789062 C 185.851562 227.085938 180.878906 225.671875 176.671875 222.9375 C 172.214844 220.035156 169.007812 215.867188 166.863281 211.042969 C 164.691406 206.148438 163.386719 200.878906 160.707031 196.214844 C 158.003906 191.511719 153.84375 187.976562 150.367188 183.882812 C 147.074219 180 144.117188 174.8125 145.039062 169.527344 C 145.929688 164.429688 150.394531 161.332031 154.558594 158.890625 C 159.203125 156.167969 164.75 152.792969 170.324219 154.519531 C 170.609375 155.582031 171.070312 156.605469 171.722656 157.539062 C 174.179688 161.058594 178.453125 162.980469 182.535156 163.867188 C 184.210938 164.234375 185.953125 164.46875 187.707031 164.542969 C 187.710938 165.808594 187.75 167.097656 187.601562 168.347656 C 187.433594 169.6875 186.851562 170.800781 185.527344 171.28125 C 184.390625 171.691406 183.144531 171.6875 182.015625 172.144531 C 179.988281 172.964844 178.761719 174.988281 178.21875 177.023438 C 178.054688 177.628906 177.957031 178.242188 177.894531 178.859375 C 176.773438 179.28125 175.621094 179.617188 174.445312 179.851562 C 169.238281 180.898438 163.789062 179.863281 159.238281 177.15625 C 156.703125 175.644531 154.476562 173.636719 152.75 171.242188 C 152.585938 171.019531 152.230469 171.085938 152.21875 171.386719 C 151.921875 180.402344 159.722656 186.5 164.605469 193.085938 C 165.9375 194.878906 167.066406 196.789062 167.960938 198.835938 C 168.878906 200.945312 169.585938 203.140625 170.324219 205.316406 C 171.617188 209.128906 173.074219 212.972656 175.71875 216.070312 C 176.953125 217.511719 178.441406 218.746094 180.152344 219.574219 C 182.074219 220.5 184.1875 220.894531 186.304688 221.007812 C 188.484375 221.121094 190.683594 220.953125 192.851562 220.730469 C 194.902344 220.519531 196.96875 220.1875 198.871094 219.359375 C 202.433594 217.8125 204.496094 214.507812 205.910156 211.042969 C 206.710938 209.089844 207.351562 207.074219 208.035156 205.082031 C 208.824219 202.773438 209.621094 200.476562 210.453125 198.183594 C 213.699219 189.222656 217.617188 180.574219 222.683594 172.480469 C 223.304688 171.488281 223.941406 170.503906 224.59375 169.523438 C 224.796875 169.21875 224.308594 168.933594 224.105469 169.238281 C 219.035156 176.84375 214.910156 184.992188 211.601562 193.507812 C 209.890625 197.910156 208.355469 202.382812 206.832031 206.859375 C 205.632812 210.375 204.402344 214.1875 201.652344 216.832031 C 198.539062 219.832031 193.957031 220.167969 189.859375 220.402344 C 185.589844 220.652344 181.179688 220.234375 177.804688 217.34375 C 171.320312 211.796875 171.042969 202.417969 166.878906 195.4375 C 162.609375 188.273438 154.703125 183.046875 153.035156 174.457031 C 152.894531 173.71875 152.816406 172.972656 152.800781 172.222656 C 155.980469 176.273438 160.558594 179.15625 165.589844 180.292969 C 169.683594 181.21875 173.949219 180.890625 177.859375 179.476562 C 177.734375 181.535156 177.972656 183.632812 177.867188 185.6875 C 177.558594 191.402344 174.453125 196.417969 173.371094 201.957031 C 172.488281 206.449219 172.863281 211.730469 176.660156 214.839844 C 178.570312 216.402344 180.972656 217.210938 183.375 217.644531 C 186 218.117188 188.71875 218.253906 191.375 217.964844 C 196.386719 217.425781 201.199219 215.222656 204.125 210.996094 C 205.441406 209.09375 206.289062 206.855469 206.40625 204.535156 C 206.542969 201.820312 205.664062 199.199219 204.65625 196.71875 C 202.90625 192.40625 200.554688 187.664062 202.335938 182.945312 C 203.203125 180.648438 205.097656 179.269531 207.472656 178.8125 C 210 178.328125 212.667969 178.648438 215.101562 177.695312 C 219.292969 176.050781 221.410156 171.628906 223.128906 167.773438 C 223.234375 167.535156 223.003906 167.210938 222.738281 167.382812 C 218.359375 170.234375 213.679688 172.609375 208.785156 174.4375 C 206.289062 175.367188 203.726562 176.234375 201.105469 176.742188 C 198.589844 177.226562 195.929688 177.320312 193.480469 176.460938 C 191.175781 175.652344 189.09375 174.019531 188.191406 171.699219 C 188.097656 171.457031 187.824219 171.429688 187.671875 171.628906 C 185.320312 174.734375 182.113281 177.140625 178.523438 178.617188 C 178.675781 177.367188 179 176.152344 179.660156 175.027344 C 180.238281 174.046875 181.054688 173.191406 182.109375 172.726562 C 183.195312 172.246094 184.417969 172.238281 185.542969 171.878906 C 186.558594 171.558594 187.375 170.917969 187.800781 169.925781 C 188.273438 168.820312 188.253906 167.574219 188.269531 166.398438 C 188.277344 165.785156 188.285156 165.171875 188.292969 164.5625 C 191.699219 164.632812 195.117188 164.050781 198.117188 162.472656 C 201.140625 160.882812 203.773438 158.175781 204.90625 154.929688 C 205.910156 154.964844 206.910156 154.910156 207.863281 154.78125 C 213.335938 154.058594 218.832031 151.367188 224.421875 152.785156 C 226.808594 153.390625 228.835938 154.839844 230.125 156.964844 Z M 187.824219 172.316406 C 189.753906 176.503906 194.726562 178 199.054688 177.605469 C 201.878906 177.34375 204.628906 176.492188 207.296875 175.570312 C 209.878906 174.679688 212.410156 173.636719 214.871094 172.457031 C 217.398438 171.246094 219.847656 169.878906 222.214844 168.382812 C 220.433594 172.292969 218.09375 176.539062 213.59375 177.550781 C 211.078125 178.117188 208.398438 177.757812 205.945312 178.625 C 204.03125 179.304688 202.597656 180.726562 201.839844 182.597656 C 201.074219 184.496094 201.011719 186.632812 201.285156 188.636719 C 201.625 191.085938 202.613281 193.347656 203.5625 195.613281 C 204.613281 198.109375 205.691406 200.695312 205.820312 203.4375 C 205.933594 205.933594 205.171875 208.363281 203.800781 210.441406 C 200.832031 214.945312 195.640625 217.128906 190.398438 217.488281 C 187.761719 217.667969 185.050781 217.480469 182.472656 216.890625 C 180.03125 216.328125 177.617188 215.292969 175.9375 213.371094 C 172.675781 209.636719 173.207031 204.015625 174.527344 199.605469 C 175.355469 196.847656 176.476562 194.191406 177.316406 191.4375 C 178.148438 188.679688 178.5 185.972656 178.421875 183.097656 C 178.390625 181.828125 178.339844 180.53125 178.441406 179.261719 C 179.40625 178.882812 180.34375 178.4375 181.25 177.925781 C 183.792969 176.5 186.023438 174.589844 187.824219 172.316406 Z M 224.027344 152.113281 C 218.359375 150.945312 212.976562 153.621094 207.429688 154.261719 C 206.644531 154.355469 205.855469 154.398438 205.0625 154.382812 C 205.300781 153.5625 205.445312 152.710938 205.472656 151.839844 C 205.609375 147.703125 203.121094 143.367188 199.019531 142.164062 C 198.949219 142.144531 198.882812 142.128906 198.816406 142.113281 C 198.292969 141.453125 197.707031 140.839844 197.039062 140.308594 C 193.101562 137.1875 187.730469 137.578125 183.09375 138.46875 C 181.890625 138.699219 180.679688 138.945312 179.496094 139.265625 C 178.496094 139.539062 177.476562 139.90625 176.65625 140.554688 C 175.683594 141.324219 175.28125 142.460938 175.503906 143.523438 C 174.363281 143.984375 173.316406 144.6875 172.460938 145.621094 C 170.550781 147.714844 169.75 150.492188 170.0625 153.171875 C 169.875 153.089844 169.6875 153.007812 169.5 152.929688 C 167.066406 151.902344 164.492188 151.289062 161.867188 151.074219 C 161.476562 149.523438 162.804688 148.304688 163.921875 147.425781 C 165.164062 146.453125 166.363281 145.445312 167.503906 144.355469 C 169.761719 142.179688 171.785156 139.777344 173.6875 137.289062 C 174.703125 135.953125 175.675781 134.585938 176.621094 133.203125 C 177.511719 131.90625 178.445312 130.621094 179.253906 129.273438 C 179.914062 128.175781 180.394531 126.972656 180.367188 125.675781 C 180.34375 124.40625 179.90625 123.152344 179.160156 122.121094 C 178.460938 121.152344 177.515625 120.363281 176.410156 119.894531 C 175.046875 119.316406 173.550781 119.257812 172.089844 119.292969 C 170.515625 119.332031 168.882812 119.511719 167.335938 119.152344 C 167.039062 119.082031 166.667969 118.988281 166.457031 118.738281 C 166.058594 118.253906 166.601562 117.6875 166.933594 117.351562 C 167.425781 116.847656 167.976562 116.398438 168.558594 116.011719 C 170.871094 114.476562 173.789062 113.828125 176.527344 114.324219 C 179.535156 114.871094 182.117188 116.84375 185.277344 116.601562 C 188.457031 116.355469 191.179688 114.523438 194.1875 113.652344 C 195.679688 113.222656 197.300781 112.976562 198.824219 113.375 C 199.160156 113.464844 199.636719 113.597656 200.023438 113.816406 C 200.097656 114.066406 200.203125 114.304688 200.359375 114.523438 C 200.453125 114.65625 200.558594 114.777344 200.667969 114.890625 C 200.566406 115.738281 199.609375 116.15625 198.910156 116.445312 C 196.648438 117.375 194.839844 118.988281 193.753906 121.199219 C 192.671875 123.417969 192.421875 125.976562 193.203125 128.332031 C 194.121094 131.101562 196.136719 133.375 198.121094 135.445312 C 200.089844 137.5 202.277344 139.445312 204.832031 140.734375 C 207.167969 141.917969 209.882812 142.542969 212.476562 141.941406 C 214.71875 141.421875 216.863281 139.980469 217.648438 137.742188 C 217.757812 137.421875 217.835938 137.101562 217.886719 136.773438 C 218.445312 136.617188 219 136.4375 219.542969 136.226562 C 219.699219 136.167969 219.75 136.023438 219.730469 135.894531 C 221.15625 135.210938 222.78125 134.992188 224.34375 135.226562 C 226.832031 138.894531 228.660156 143.039062 229.261719 147.417969 C 228.777344 148.1875 228.257812 148.933594 227.839844 149.742188 C 227.261719 150.863281 226.878906 152.191406 227.371094 153.417969 C 226.355469 152.792969 225.222656 152.355469 224.027344 152.113281 Z M 229.410156 152.273438 C 229.371094 152.734375 229.289062 153.871094 228.621094 153.878906 C 227.894531 153.890625 227.71875 152.695312 227.71875 152.175781 C 227.722656 150.746094 228.628906 149.460938 229.375 148.308594 C 229.5 149.625 229.519531 150.957031 229.410156 152.273438 Z M 226.597656 135.917969 C 229.03125 137.101562 230.554688 139.585938 230.738281 142.257812 C 230.832031 143.558594 230.613281 144.886719 230.039062 146.066406 C 229.941406 146.265625 229.835938 146.460938 229.726562 146.65625 C 229.617188 146.011719 229.488281 145.363281 229.328125 144.730469 C 228.59375 141.785156 227.34375 138.972656 225.769531 136.382812 C 225.5625 136.046875 225.351562 135.710938 225.136719 135.382812 C 225.640625 135.511719 226.128906 135.6875 226.597656 135.917969 Z M 206.089844 118.75 C 211.457031 122.460938 216.839844 126.296875 221.203125 131.191406 C 222.164062 132.269531 223.078125 133.410156 223.917969 134.601562 C 223.347656 134.546875 222.769531 134.546875 222.199219 134.609375 C 220.921875 134.746094 219.691406 135.160156 218.613281 135.867188 C 218.558594 135.902344 218.53125 135.945312 218.511719 135.996094 C 218.328125 136.058594 218.144531 136.117188 217.957031 136.171875 C 218.074219 134.023438 217.046875 131.816406 215.410156 130.453125 C 213.558594 128.90625 210.804688 128.3125 208.796875 129.910156 C 207.046875 131.304688 206.429688 133.886719 208.023438 135.640625 C 209.738281 137.527344 212.785156 137.574219 215.121094 137.3125 C 215.84375 137.230469 216.558594 137.101562 217.265625 136.933594 C 217.109375 137.6875 216.792969 138.414062 216.285156 139.054688 C 214.683594 141.046875 211.949219 141.789062 209.488281 141.5625 C 206.65625 141.296875 204.070312 139.871094 201.875 138.132812 C 199.660156 136.375 197.589844 134.261719 195.878906 132.003906 C 194.21875 129.8125 193.03125 127.246094 193.371094 124.441406 C 193.664062 121.992188 194.988281 119.640625 196.964844 118.148438 C 197.417969 117.808594 197.90625 117.511719 198.414062 117.269531 C 199.070312 116.960938 199.789062 116.765625 200.375 116.324219 C 200.71875 116.0625 200.988281 115.695312 201.132812 115.300781 C 201.414062 115.523438 201.714844 115.726562 202.007812 115.929688 C 203.363281 116.878906 204.730469 117.8125 206.089844 118.75 Z M 217.351562 136.34375 C 215.15625 136.925781 212.769531 137.136719 210.640625 136.515625 C 209.480469 136.179688 208.347656 135.507812 207.859375 134.355469 C 207.378906 133.207031 207.753906 131.910156 208.515625 130.980469 C 210.394531 128.683594 213.632812 129.402344 215.507812 131.3125 C 216.796875 132.628906 217.515625 134.535156 217.351562 136.34375 Z M 217.351562 136.34375 " fill-opacity="1" fill-rule="nonzero"/></g><g fill="#2e6736" fill-opacity="1"><g transform="translate(62.898208, 264.910178)"><g><path d="M 22.265625 0 L 22.265625 -16.625 L 16.328125 -6.296875 L 13.40625 -6.296875 L 7.546875 -16.625 L 7.546875 0 L 2.6875 0 L 2.6875 -24.75 L 8.5 -24.75 L 14.953125 -13 L 21.453125 -24.75 L 27.140625 -24.75 L 27.140625 0 Z M 22.265625 0 "/></g></g></g><g fill="#2e6736" fill-opacity="1"><g transform="translate(92.706495, 264.910178)"><g><path d="M 13.140625 -9.4375 L 13.140625 0 L 8.0625 0 L 8.0625 -9.328125 L 0.328125 -24.75 L 5.828125 -24.75 L 10.65625 -14.390625 L 15.59375 -24.75 L 20.90625 -24.75 Z M 13.140625 -9.4375 "/></g></g></g><g fill="#2e6736" fill-opacity="1"><g transform="translate(113.949589, 264.910178)"><g/></g></g><g fill="#2e6736" fill-opacity="1"><g transform="translate(122.747234, 264.910178)"><g><path d="M 2.6875 0 L 2.6875 -24.75 L 7.71875 -24.75 L 7.71875 -4.609375 L 18.140625 -4.609375 L 18.140625 0 Z M 2.6875 0 "/></g></g></g><g fill="#2e6736" fill-opacity="1"><g transform="translate(141.30812, 264.910178)"><g><path d="M 13.765625 0 L 1.828125 0 L 1.828125 -3.875 L 5.28125 -3.875 L 5.28125 -20.875 L 1.828125 -20.875 L 1.828125 -24.75 L 13.765625 -24.75 L 13.765625 -20.875 L 10.34375 -20.875 L 10.34375 -3.875 L 13.765625 -3.875 Z M 13.765625 0 "/></g></g></g><g fill="#2e6736" fill-opacity="1"><g transform="translate(156.900693, 264.910178)"><g><path d="M 13.28125 -20.140625 L 13.28125 0 L 8.25 0 L 8.25 -20.140625 L 0.625 -20.140625 L 0.625 -24.75 L 20.90625 -24.75 L 20.90625 -20.140625 Z M 13.28125 -20.140625 "/></g></g></g><g fill="#2e6736" fill-opacity="1"><g transform="translate(178.42989, 264.910178)"><g><path d="M 13.28125 -20.140625 L 13.28125 0 L 8.25 0 L 8.25 -20.140625 L 0.625 -20.140625 L 0.625 -24.75 L 20.90625 -24.75 L 20.90625 -20.140625 Z M 13.28125 -20.140625 "/></g></g></g><g fill="#2e6736" fill-opacity="1"><g transform="translate(199.959086, 264.910178)"><g><path d="M 2.6875 0 L 2.6875 -24.75 L 7.71875 -24.75 L 7.71875 -4.609375 L 18.140625 -4.609375 L 18.140625 0 Z M 2.6875 0 "/></g></g></g><g fill="#2e6736" fill-opacity="1"><g transform="translate(218.519972, 264.910178)"><g><path d="M 2.6875 0 L 2.6875 -24.75 L 18.765625 -24.75 L 18.765625 -20.296875 L 7.71875 -20.296875 L 7.71875 -15.015625 L 17.03125 -15.015625 L 17.03125 -10.546875 L 7.71875 -10.546875 L 7.71875 -4.609375 L 18.765625 -4.609375 L 18.765625 0 Z M 2.6875 0 "/></g></g></g><g fill="#2e6736" fill-opacity="1"><g transform="translate(239.065697, 264.910178)"><g/></g></g><g fill="#2e6736" fill-opacity="1"><g transform="translate(247.863342, 264.910178)"><g><path d="M 20.765625 -16.453125 C 20.765625 -13.472656 20.0625 -11.257812 18.65625 -9.8125 C 17.257812 -8.375 14.988281 -7.65625 11.84375 -7.65625 L 7.71875 -7.65625 L 7.71875 0 L 2.6875 0 L 2.6875 -24.75 L 11.984375 -24.75 C 14.785156 -24.75 16.945312 -24.09375 18.46875 -22.78125 C 20 -21.476562 20.765625 -19.367188 20.765625 -16.453125 Z M 15.5625 -16.421875 C 15.5625 -17.816406 15.175781 -18.820312 14.40625 -19.4375 C 13.632812 -20.0625 12.25 -20.375 10.25 -20.375 L 7.71875 -20.375 L 7.71875 -12.046875 L 9.78125 -12.046875 C 11.625 -12.046875 12.898438 -12.175781 13.609375 -12.4375 C 14.328125 -12.695312 14.832031 -13.128906 15.125 -13.734375 C 15.414062 -14.335938 15.5625 -15.234375 15.5625 -16.421875 Z M 15.5625 -16.421875 "/></g></g></g><g fill="#2e6736" fill-opacity="1"><g transform="translate(270.018404, 264.910178)"><g><path d="M 2.6875 0 L 2.6875 -24.75 L 18.765625 -24.75 L 18.765625 -20.296875 L 7.71875 -20.296875 L 7.71875 -15.015625 L 17.03125 -15.015625 L 17.03125 -10.546875 L 7.71875 -10.546875 L 7.71875 -4.609375 L 18.765625 -4.609375 L 18.765625 0 Z M 2.6875 0 "/></g></g></g><g fill="#2e6736" fill-opacity="1"><g transform="translate(290.564118, 264.910178)"><g><path d="M 13.28125 -20.140625 L 13.28125 0 L 8.25 0 L 8.25 -20.140625 L 0.625 -20.140625 L 0.625 -24.75 L 20.90625 -24.75 L 20.90625 -20.140625 Z M 13.28125 -20.140625 "/></g></g></g><g fill="#000000" fill-opacity="1"><g transform="translate(109.867506, 286.128202)"><g><path d="M 5.46875 0 L 4.6875 0 L 0.640625 -11.734375 L 1.421875 -11.734375 L 5.078125 -0.9375 L 8.796875 -11.734375 L 9.578125 -11.734375 Z M 5.46875 0 "/></g></g></g><g fill="#000000" fill-opacity="1"><g transform="translate(120.088398, 286.128202)"><g><path d="M 1.828125 0 L 1.828125 -11.734375 L 8.546875 -11.734375 L 8.546875 -11.078125 L 2.546875 -11.078125 L 2.546875 -6.59375 L 7.71875 -6.59375 L 7.71875 -5.9375 L 2.546875 -5.9375 L 2.546875 -0.65625 L 8.546875 -0.65625 L 8.546875 0 Z M 1.828125 0 "/></g></g></g><g fill="#000000" fill-opacity="1"><g transform="translate(129.894021, 286.128202)"><g><path d="M 5.296875 -11.078125 L 5.296875 0 L 4.5625 0 L 4.5625 -11.078125 L 0.390625 -11.078125 L 0.390625 -11.734375 L 9.453125 -11.734375 L 9.453125 -11.078125 Z M 5.296875 -11.078125 "/></g></g></g><g fill="#000000" fill-opacity="1"><g transform="translate(139.750493, 286.128202)"><g><path d="M 1.828125 0 L 1.828125 -11.734375 L 8.546875 -11.734375 L 8.546875 -11.078125 L 2.546875 -11.078125 L 2.546875 -6.59375 L 7.71875 -6.59375 L 7.71875 -5.9375 L 2.546875 -5.9375 L 2.546875 -0.65625 L 8.546875 -0.65625 L 8.546875 0 Z M 1.828125 0 "/></g></g></g><g fill="#000000" fill-opacity="1"><g transform="translate(149.556116, 286.128202)"><g><path d="M 8.453125 0 L 5.4375 -5.140625 L 2.546875 -5.140625 L 2.546875 0 L 1.828125 0 L 1.828125 -11.734375 L 4.84375 -11.734375 C 5.476562 -11.734375 6.03125 -11.675781 6.5 -11.5625 C 6.976562 -11.445312 7.375 -11.257812 7.6875 -11 C 8.007812 -10.75 8.25 -10.421875 8.40625 -10.015625 C 8.5625 -9.609375 8.640625 -9.113281 8.640625 -8.53125 C 8.640625 -8.019531 8.585938 -7.582031 8.484375 -7.21875 C 8.390625 -6.851562 8.238281 -6.535156 8.03125 -6.265625 C 7.820312 -6.003906 7.5625 -5.789062 7.25 -5.625 C 6.945312 -5.46875 6.582031 -5.347656 6.15625 -5.265625 L 9.359375 0 Z M 7.84375 -8.546875 C 7.84375 -8.972656 7.796875 -9.34375 7.703125 -9.65625 C 7.609375 -9.976562 7.441406 -10.242188 7.203125 -10.453125 C 6.972656 -10.660156 6.664062 -10.816406 6.28125 -10.921875 C 5.894531 -11.023438 5.410156 -11.078125 4.828125 -11.078125 L 2.546875 -11.078125 L 2.546875 -5.796875 L 4.828125 -5.796875 C 5.410156 -5.796875 5.894531 -5.847656 6.28125 -5.953125 C 6.664062 -6.054688 6.972656 -6.21875 7.203125 -6.4375 C 7.441406 -6.65625 7.609375 -6.9375 7.703125 -7.28125 C 7.796875 -7.632812 7.84375 -8.054688 7.84375 -8.546875 Z M 7.84375 -8.546875 "/></g></g></g><g fill="#000000" fill-opacity="1"><g transform="translate(159.641407, 286.128202)"><g><path d="M 4.796875 0 L 0.859375 0 L 0.859375 -0.65625 L 2.46875 -0.65625 L 2.46875 -11.078125 L 0.859375 -11.078125 L 0.859375 -11.734375 L 4.796875 -11.734375 L 4.796875 -11.078125 L 3.203125 -11.078125 L 3.203125 -0.65625 L 4.796875 -0.65625 Z M 4.796875 0 "/></g></g></g><g fill="#000000" fill-opacity="1"><g transform="translate(165.30273, 286.128202)"><g><path d="M 8.890625 0 L 2.546875 -10.890625 L 2.546875 0 L 1.828125 0 L 1.828125 -11.734375 L 2.859375 -11.734375 L 9 -1.21875 L 9 -11.734375 L 9.71875 -11.734375 L 9.71875 0 Z M 8.890625 0 "/></g></g></g><g fill="#000000" fill-opacity="1"><g transform="translate(176.845728, 286.128202)"><g><path d="M 0.640625 0 L 4.765625 -11.734375 L 5.671875 -11.734375 L 9.859375 0 L 9.015625 0 L 7.734375 -3.734375 L 2.734375 -3.734375 L 1.453125 0 Z M 2.953125 -4.390625 L 7.5 -4.390625 L 5.203125 -11.0625 Z M 2.953125 -4.390625 "/></g></g></g><g fill="#000000" fill-opacity="1"><g transform="translate(187.346303, 286.128202)"><g><path d="M 8.453125 0 L 5.4375 -5.140625 L 2.546875 -5.140625 L 2.546875 0 L 1.828125 0 L 1.828125 -11.734375 L 4.84375 -11.734375 C 5.476562 -11.734375 6.03125 -11.675781 6.5 -11.5625 C 6.976562 -11.445312 7.375 -11.257812 7.6875 -11 C 8.007812 -10.75 8.25 -10.421875 8.40625 -10.015625 C 8.5625 -9.609375 8.640625 -9.113281 8.640625 -8.53125 C 8.640625 -8.019531 8.585938 -7.582031 8.484375 -7.21875 C 8.390625 -6.851562 8.238281 -6.535156 8.03125 -6.265625 C 7.820312 -6.003906 7.5625 -5.789062 7.25 -5.625 C 6.945312 -5.46875 6.582031 -5.347656 6.15625 -5.265625 L 9.359375 0 Z M 7.84375 -8.546875 C 7.84375 -8.972656 7.796875 -9.34375 7.703125 -9.65625 C 7.609375 -9.976562 7.441406 -10.242188 7.203125 -10.453125 C 6.972656 -10.660156 6.664062 -10.816406 6.28125 -10.921875 C 5.894531 -11.023438 5.410156 -11.078125 4.828125 -11.078125 L 2.546875 -11.078125 L 2.546875 -5.796875 L 4.828125 -5.796875 C 5.410156 -5.796875 5.894531 -5.847656 6.28125 -5.953125 C 6.664062 -6.054688 6.972656 -6.21875 7.203125 -6.4375 C 7.441406 -6.65625 7.609375 -6.9375 7.703125 -7.28125 C 7.796875 -7.632812 7.84375 -8.054688 7.84375 -8.546875 Z M 7.84375 -8.546875 "/></g></g></g><g fill="#000000" fill-opacity="1"><g transform="translate(197.431594, 286.128202)"><g><path d="M 5.046875 -4.578125 L 5.046875 0 L 4.328125 0 L 4.328125 -4.546875 L 0.515625 -11.734375 L 1.3125 -11.734375 L 4.6875 -5.21875 L 8.0625 -11.734375 L 8.84375 -11.734375 Z M 5.046875 -4.578125 "/></g></g></g><g fill="#000000" fill-opacity="1"><g transform="translate(206.804983, 286.128202)"><g/></g></g><g fill="#000000" fill-opacity="1"><g transform="translate(211.262851, 286.128202)"><g><path d="M 10.21875 -2.125 C 10.039062 -1.78125 9.832031 -1.460938 9.59375 -1.171875 C 9.363281 -0.878906 9.085938 -0.628906 8.765625 -0.421875 C 8.453125 -0.210938 8.082031 -0.0507812 7.65625 0.0625 C 7.238281 0.1875 6.753906 0.25 6.203125 0.25 C 5.367188 0.25 4.644531 0.117188 4.03125 -0.140625 C 3.425781 -0.398438 2.925781 -0.785156 2.53125 -1.296875 C 2.132812 -1.804688 1.84375 -2.441406 1.65625 -3.203125 C 1.46875 -3.960938 1.375 -4.847656 1.375 -5.859375 C 1.375 -6.828125 1.460938 -7.6875 1.640625 -8.4375 C 1.816406 -9.195312 2.097656 -9.835938 2.484375 -10.359375 C 2.867188 -10.878906 3.363281 -11.28125 3.96875 -11.5625 C 4.570312 -11.84375 5.296875 -11.984375 6.140625 -11.984375 C 6.628906 -11.984375 7.078125 -11.929688 7.484375 -11.828125 C 7.890625 -11.734375 8.25 -11.585938 8.5625 -11.390625 C 8.882812 -11.203125 9.171875 -10.960938 9.421875 -10.671875 C 9.671875 -10.378906 9.894531 -10.046875 10.09375 -9.671875 L 9.40625 -9.296875 C 9.238281 -9.628906 9.050781 -9.914062 8.84375 -10.15625 C 8.632812 -10.40625 8.398438 -10.613281 8.140625 -10.78125 C 7.878906 -10.945312 7.582031 -11.070312 7.25 -11.15625 C 6.914062 -11.238281 6.539062 -11.28125 6.125 -11.28125 C 5.40625 -11.28125 4.796875 -11.164062 4.296875 -10.9375 C 3.796875 -10.707031 3.390625 -10.363281 3.078125 -9.90625 C 2.765625 -9.457031 2.535156 -8.894531 2.390625 -8.21875 C 2.242188 -7.539062 2.171875 -6.753906 2.171875 -5.859375 C 2.171875 -5.023438 2.238281 -4.269531 2.375 -3.59375 C 2.507812 -2.925781 2.734375 -2.359375 3.046875 -1.890625 C 3.367188 -1.421875 3.785156 -1.0625 4.296875 -0.8125 C 4.816406 -0.570312 5.457031 -0.453125 6.21875 -0.453125 C 6.726562 -0.453125 7.164062 -0.515625 7.53125 -0.640625 C 7.90625 -0.765625 8.222656 -0.925781 8.484375 -1.125 C 8.753906 -1.320312 8.972656 -1.539062 9.140625 -1.78125 C 9.316406 -2.03125 9.460938 -2.269531 9.578125 -2.5 Z M 10.21875 -2.125 "/></g></g></g><g fill="#000000" fill-opacity="1"><g transform="translate(222.356679, 286.128202)"><g><path d="M 1.828125 0 L 1.828125 -11.734375 L 2.546875 -11.734375 L 2.546875 -0.65625 L 8.25 -0.65625 L 8.25 0 Z M 1.828125 0 "/></g></g></g><g fill="#000000" fill-opacity="1"><g transform="translate(231.153765, 286.128202)"><g><path d="M 4.796875 0 L 0.859375 0 L 0.859375 -0.65625 L 2.46875 -0.65625 L 2.46875 -11.078125 L 0.859375 -11.078125 L 0.859375 -11.734375 L 4.796875 -11.734375 L 4.796875 -11.078125 L 3.203125 -11.078125 L 3.203125 -0.65625 L 4.796875 -0.65625 Z M 4.796875 0 "/></g></g></g><g fill="#000000" fill-opacity="1"><g transform="translate(236.815088, 286.128202)"><g><path d="M 8.890625 0 L 2.546875 -10.890625 L 2.546875 0 L 1.828125 0 L 1.828125 -11.734375 L 2.859375 -11.734375 L 9 -1.21875 L 9 -11.734375 L 9.71875 -11.734375 L 9.71875 0 Z M 8.890625 0 "/></g></g></g><g fill="#000000" fill-opacity="1"><g transform="translate(248.358086, 286.128202)"><g><path d="M 4.796875 0 L 0.859375 0 L 0.859375 -0.65625 L 2.46875 -0.65625 L 2.46875 -11.078125 L 0.859375 -11.078125 L 0.859375 -11.734375 L 4.796875 -11.734375 L 4.796875 -11.078125 L 3.203125 -11.078125 L 3.203125 -0.65625 L 4.796875 -0.65625 Z M 4.796875 0 "/></g></g></g><g fill="#000000" fill-opacity="1"><g transform="translate(254.019409, 286.128202)"><g><path d="M 10.21875 -2.125 C 10.039062 -1.78125 9.832031 -1.460938 9.59375 -1.171875 C 9.363281 -0.878906 9.085938 -0.628906 8.765625 -0.421875 C 8.453125 -0.210938 8.082031 -0.0507812 7.65625 0.0625 C 7.238281 0.1875 6.753906 0.25 6.203125 0.25 C 5.367188 0.25 4.644531 0.117188 4.03125 -0.140625 C 3.425781 -0.398438 2.925781 -0.785156 2.53125 -1.296875 C 2.132812 -1.804688 1.84375 -2.441406 1.65625 -3.203125 C 1.46875 -3.960938 1.375 -4.847656 1.375 -5.859375 C 1.375 -6.828125 1.460938 -7.6875 1.640625 -8.4375 C 1.816406 -9.195312 2.097656 -9.835938 2.484375 -10.359375 C 2.867188 -10.878906 3.363281 -11.28125 3.96875 -11.5625 C 4.570312 -11.84375 5.296875 -11.984375 6.140625 -11.984375 C 6.628906 -11.984375 7.078125 -11.929688 7.484375 -11.828125 C 7.890625 -11.734375 8.25 -11.585938 8.5625 -11.390625 C 8.882812 -11.203125 9.171875 -10.960938 9.421875 -10.671875 C 9.671875 -10.378906 9.894531 -10.046875 10.09375 -9.671875 L 9.40625 -9.296875 C 9.238281 -9.628906 9.050781 -9.914062 8.84375 -10.15625 C 8.632812 -10.40625 8.398438 -10.613281 8.140625 -10.78125 C 7.878906 -10.945312 7.582031 -11.070312 7.25 -11.15625 C 6.914062 -11.238281 6.539062 -11.28125 6.125 -11.28125 C 5.40625 -11.28125 4.796875 -11.164062 4.296875 -10.9375 C 3.796875 -10.707031 3.390625 -10.363281 3.078125 -9.90625 C 2.765625 -9.457031 2.535156 -8.894531 2.390625 -8.21875 C 2.242188 -7.539062 2.171875 -6.753906 2.171875 -5.859375 C 2.171875 -5.023438 2.238281 -4.269531 2.375 -3.59375 C 2.507812 -2.925781 2.734375 -2.359375 3.046875 -1.890625 C 3.367188 -1.421875 3.785156 -1.0625 4.296875 -0.8125 C 4.816406 -0.570312 5.457031 -0.453125 6.21875 -0.453125 C 6.726562 -0.453125 7.164062 -0.515625 7.53125 -0.640625 C 7.90625 -0.765625 8.222656 -0.925781 8.484375 -1.125 C 8.753906 -1.320312 8.972656 -1.539062 9.140625 -1.78125 C 9.316406 -2.03125 9.460938 -2.269531 9.578125 -2.5 Z M 10.21875 -2.125 "/></g></g></g></svg>